<svg width="2046" height="605" viewBox="0 0 2046 605" fill="none" xmlns="http://www.w3.org/2000/svg">
<path d="M220.598 76.0149C242.658 82.6673 267.886 92.165 267.886 120.017C267.886 125.707 266.482 132.44 261.749 136.127C252.845 143.14 237.925 137.449 230.906 130.396C215.745 115.208 217.349 95.1305 220.598 76.0149ZM176.478 92.0448C176.478 92.0448 179.426 135.985 180.489 164.179C182.729 223.607 180.489 316.463 180.489 316.463C82.8646 272.02 120.045 154.04 176.478 92.0448ZM336.913 108.075C323.878 148.55 292.312 148.229 285.293 134.885C277.713 120.498 295.481 96.3328 336.913 108.075ZM272.739 140.134C282.285 153.159 280.881 157.006 276.75 172.194C268.247 158.809 269.41 155.283 272.739 140.134ZM16.0435 152.157H24.0653C24.0653 169.83 22.0999 231.625 27.0333 244.328C32.6485 258.755 47.6492 272.18 63.9734 265.808C93.333 254.307 84.2283 179.247 84.2283 152.157H92.25C92.25 152.157 95.1345 193.835 92.25 220.284C89.6497 244.127 81.2051 256.461 79.6559 280.396C78.9483 291.328 79.6559 308.448 79.6559 308.448L97.3839 492.791L104.283 596.985H64.174C64.174 596.985 63.0888 548.117 64.174 516.836C65.0438 491.762 67.0363 477.779 68.1848 452.716C71.337 383.928 68.1848 276.388 68.1848 276.388C56.794 277.31 46.7267 279.073 36.3385 272.821C8.06191 255.79 16.0435 182.293 16.0435 152.157ZM51 152.157H54.5H57.5V260.358H51V152.157ZM276.75 188.264C292.352 157.607 323.717 159.771 339.961 188.264C352.395 208.261 348.986 232.266 339.961 252.343C297.526 339.065 185.142 288.571 197.375 208.261C203.231 170.07 247.631 148.71 268.728 188.264H276.75ZM244.663 180.209C203.391 186.901 204.434 231.825 228.62 256.351C222.924 213.311 220.277 217.278 244.663 180.209ZM188.511 596.985C178.203 596.865 164.887 598.668 159.392 587.808C154.86 578.831 156.424 537.234 156.424 524.851V376.575C156.544 367.718 156.504 353.772 161.598 346.238C164.245 342.351 167.815 339.626 172.708 339.465C187.989 339.025 188.31 357.94 188.511 368.56V428.672V496.799V596.985ZM252.685 596.985V376.575C252.685 369.201 252.203 355.656 255.091 349.124C260.265 337.342 273.461 335.218 280.681 345.797C285.614 353.011 284.772 367.959 284.772 376.575V596.985H252.685Z" fill="#14B8A6" stroke="black" stroke-width="0.32"></path>
<path d="M387.6 402V118H585.2V169.2H448.4V234.4H580.4V284.8H448.4V350.8H588.4V402H387.6ZM614.428 402L716.828 118H788.828L891.228 402H828.028L807.228 341.6H698.028L677.228 402H614.428ZM715.228 291.6H790.428L752.828 182L715.228 291.6ZM948.372 402V169.2H863.572V118H1094.77V169.2H1009.57V402H948.372ZM1137.03 402V118H1304.63V130H1149.83V254.4H1299.83V266.4H1149.83V390H1307.83V402H1137.03ZM1337.52 402L1442.72 118H1457.92L1563.12 402H1549.92L1515.52 308H1385.12L1350.72 402H1337.52ZM1389.52 296H1511.12L1450.32 130.8L1389.52 296ZM1693.44 408.4C1673.44 408.4 1655.57 404.267 1639.84 396C1624.11 387.467 1611.57 376.133 1602.24 362C1593.17 347.6 1588.64 331.733 1588.64 314.4L1601.84 313.2C1601.84 327.867 1605.71 341.467 1613.44 354C1621.17 366.533 1631.97 376.667 1645.84 384.4C1659.71 391.867 1675.84 395.6 1694.24 395.6C1709.71 395.6 1723.57 393.067 1735.84 388C1748.37 382.667 1758.24 375.2 1765.44 365.6C1772.64 355.733 1776.24 343.867 1776.24 330C1776.24 319.867 1773.84 310.8 1769.04 302.8C1764.24 294.533 1755.17 287.067 1741.84 280.4C1728.51 273.467 1709.17 267.067 1683.84 261.2C1663.04 256.4 1646.11 251.067 1633.04 245.2C1619.97 239.333 1610.24 231.867 1603.84 222.8C1597.71 213.467 1594.64 201.467 1594.64 186.8C1594.64 172.933 1598.24 160.4 1605.44 149.2C1612.64 137.733 1623.04 128.667 1636.64 122C1650.51 115.067 1667.31 111.6 1687.04 111.6C1707.84 111.6 1725.31 115.867 1739.44 124.4C1753.57 132.933 1764.24 143.867 1771.44 157.2C1778.64 170.533 1782.24 184.4 1782.24 198.8L1768.64 200C1768.64 186.4 1765.44 173.867 1759.04 162.4C1752.91 150.933 1743.71 141.733 1731.44 134.8C1719.17 127.867 1704.11 124.4 1686.24 124.4C1661.44 124.4 1642.24 130.4 1628.64 142.4C1615.04 154.133 1608.24 169.2 1608.24 187.6C1608.24 198.8 1610.51 208.133 1615.04 215.6C1619.84 222.8 1627.97 229.067 1639.44 234.4C1650.91 239.467 1667.04 244.4 1687.84 249.2C1715.04 255.333 1735.97 262.4 1750.64 270.4C1765.57 278.133 1775.84 286.933 1781.44 296.8C1787.04 306.667 1789.84 318 1789.84 330.8C1789.84 346.8 1785.44 360.667 1776.64 372.4C1768.11 383.867 1756.51 392.8 1741.84 399.2C1727.44 405.333 1711.31 408.4 1693.44 408.4ZM1848.35 402V118H2015.95V130H1861.15V254.4H2011.15V266.4H1861.15V390H2019.15V402H1848.35Z" fill="#09090B"></path>
<path d="M412.368 544V483.904H391.152V475.84H441.84V483.904H420.624V544H412.368ZM447.743 544V493.12H455.807V544H447.743ZM447.551 485.152V475.744H455.999V485.152H447.551ZM472.118 544V493.12H479.51L479.798 505.984L478.646 505.6C479.222 502.784 480.214 500.384 481.622 498.4C483.094 496.352 484.886 494.784 486.998 493.696C489.11 492.544 491.446 491.968 494.006 491.968C498.422 491.968 502.006 493.184 504.758 495.616C507.574 498.048 509.334 501.44 510.038 505.792L508.502 505.696C509.014 502.752 509.942 500.288 511.286 498.304C512.694 496.256 514.486 494.688 516.662 493.6C518.838 492.512 521.334 491.968 524.15 491.968C527.798 491.968 530.87 492.736 533.366 494.272C535.862 495.744 537.75 497.92 539.03 500.8C540.31 503.68 540.95 507.168 540.95 511.264V544H532.886V512.992C532.886 508.384 531.99 504.928 530.198 502.624C528.406 500.256 525.75 499.072 522.23 499.072C519.862 499.072 517.781 499.648 515.99 500.8C514.262 501.952 512.918 503.616 511.958 505.792C510.998 507.904 510.518 510.496 510.518 513.568V544H502.454V513.568C502.454 509.024 501.654 505.472 500.054 502.912C498.454 500.352 495.766 499.072 491.99 499.072C489.622 499.072 487.542 499.648 485.75 500.8C484.022 501.952 482.646 503.616 481.622 505.792C480.662 507.968 480.182 510.56 480.182 513.568V544H472.118ZM575.052 545.152C570.252 545.152 566.092 544.064 562.572 541.888C559.116 539.712 556.428 536.64 554.508 532.672C552.652 528.64 551.724 523.936 551.724 518.56C551.724 513.184 552.652 508.512 554.508 504.544C556.428 500.576 559.084 497.504 562.476 495.328C565.932 493.088 569.996 491.968 574.668 491.968C579.084 491.968 582.988 493.024 586.38 495.136C589.772 497.184 592.396 500.192 594.252 504.16C596.172 508.128 597.132 512.96 597.132 518.656V521.056H560.172C560.492 526.496 561.932 530.592 564.492 533.344C567.116 536.096 570.636 537.472 575.052 537.472C578.38 537.472 581.1 536.704 583.212 535.168C585.388 533.568 586.892 531.488 587.724 528.928L596.364 529.6C595.02 534.144 592.46 537.888 588.684 540.832C584.972 543.712 580.428 545.152 575.052 545.152ZM560.172 513.952H588.3C587.916 509.024 586.476 505.408 583.98 503.104C581.548 500.8 578.444 499.648 574.668 499.648C570.764 499.648 567.532 500.864 564.972 503.296C562.476 505.664 560.876 509.216 560.172 513.952ZM651.521 545.152C646.977 545.152 643.105 544.416 639.905 542.944C636.769 541.472 634.305 539.456 632.513 536.896C630.785 534.272 629.793 531.296 629.537 527.968L637.984 527.392C638.497 530.464 639.809 532.928 641.921 534.784C644.033 536.576 647.233 537.472 651.521 537.472C654.977 537.472 657.729 536.928 659.777 535.84C661.889 534.688 662.945 532.864 662.945 530.368C662.945 529.024 662.625 527.904 661.985 527.008C661.345 526.112 660.097 525.344 658.241 524.704C656.385 524 653.633 523.328 649.984 522.688C645.121 521.792 641.281 520.704 638.465 519.424C635.713 518.08 633.729 516.448 632.513 514.528C631.361 512.544 630.785 510.208 630.785 507.52C630.785 502.976 632.449 499.264 635.777 496.384C639.105 493.44 643.841 491.968 649.984 491.968C654.145 491.968 657.633 492.736 660.449 494.272C663.329 495.744 665.569 497.728 667.169 500.224C668.833 502.656 669.921 505.344 670.433 508.288L661.985 508.864C661.601 507.072 660.897 505.504 659.873 504.16C658.849 502.752 657.505 501.664 655.841 500.896C654.177 500.064 652.193 499.648 649.889 499.648C646.241 499.648 643.553 500.352 641.825 501.76C640.097 503.168 639.233 504.96 639.233 507.136C639.233 508.8 639.617 510.176 640.385 511.264C641.217 512.288 642.529 513.152 644.321 513.856C646.113 514.496 648.513 515.072 651.521 515.584C656.705 516.48 660.737 517.568 663.617 518.848C666.497 520.128 668.513 521.696 669.665 523.552C670.817 525.408 671.393 527.68 671.393 530.368C671.393 533.504 670.497 536.192 668.705 538.432C666.977 540.608 664.609 542.272 661.601 543.424C658.657 544.576 655.297 545.152 651.521 545.152ZM697.439 545.152C692.191 545.152 687.999 543.936 684.863 541.504C681.791 539.072 680.255 535.68 680.255 531.328C680.255 526.976 681.535 523.552 684.095 521.056C686.655 518.56 690.719 516.8 696.287 515.776L714.335 512.416C714.335 508.128 713.311 504.928 711.263 502.816C709.279 500.704 706.271 499.648 702.239 499.648C698.719 499.648 695.935 500.448 693.887 502.048C691.839 503.584 690.431 505.824 689.663 508.768L681.119 508.096C682.079 503.296 684.383 499.424 688.031 496.48C691.743 493.472 696.479 491.968 702.239 491.968C708.767 491.968 713.759 493.824 717.215 497.536C720.671 501.184 722.399 506.24 722.399 512.704V533.728C722.399 534.88 722.591 535.712 722.975 536.224C723.423 536.672 724.127 536.896 725.087 536.896H727.103V544C726.847 544.064 726.431 544.096 725.855 544.096C725.279 544.16 724.671 544.192 724.031 544.192C721.727 544.192 719.839 543.84 718.367 543.136C716.959 542.368 715.935 541.216 715.295 539.68C714.655 538.08 714.335 536 714.335 533.44L715.295 533.632C714.847 535.808 713.759 537.792 712.031 539.584C710.303 541.312 708.159 542.688 705.599 543.712C703.039 544.672 700.319 545.152 697.439 545.152ZM698.207 538.048C701.599 538.048 704.479 537.408 706.847 536.128C709.279 534.784 711.135 532.992 712.415 530.752C713.695 528.448 714.335 525.888 714.335 523.072V519.424L697.823 522.496C694.367 523.136 691.967 524.128 690.623 525.472C689.343 526.752 688.703 528.448 688.703 530.56C688.703 532.928 689.535 534.784 691.199 536.128C692.927 537.408 695.263 538.048 698.207 538.048ZM747.203 544L728.675 493.12H737.507L752.291 535.744L767.075 493.12H775.906L757.379 544H747.203ZM803.052 545.152C798.252 545.152 794.092 544.064 790.572 541.888C787.116 539.712 784.428 536.64 782.508 532.672C780.652 528.64 779.724 523.936 779.724 518.56C779.724 513.184 780.652 508.512 782.508 504.544C784.428 500.576 787.084 497.504 790.476 495.328C793.932 493.088 797.996 491.968 802.668 491.968C807.084 491.968 810.988 493.024 814.38 495.136C817.772 497.184 820.396 500.192 822.252 504.16C824.172 508.128 825.132 512.96 825.132 518.656V521.056H788.172C788.492 526.496 789.932 530.592 792.492 533.344C795.116 536.096 798.636 537.472 803.052 537.472C806.38 537.472 809.1 536.704 811.212 535.168C813.388 533.568 814.892 531.488 815.724 528.928L824.364 529.6C823.02 534.144 820.46 537.888 816.684 540.832C812.972 543.712 808.428 545.152 803.052 545.152ZM788.172 513.952H816.3C815.916 509.024 814.476 505.408 811.98 503.104C809.548 500.8 806.444 499.648 802.668 499.648C798.764 499.648 795.532 500.864 792.972 503.296C790.476 505.664 788.876 509.216 788.172 513.952ZM854.103 545.152C849.687 545.152 845.847 544.064 842.583 541.888C839.383 539.712 836.919 536.64 835.191 532.672C833.463 528.704 832.599 524 832.599 518.56C832.599 513.12 833.463 508.416 835.191 504.448C836.919 500.48 839.383 497.408 842.583 495.232C845.847 493.056 849.687 491.968 854.103 491.968C857.495 491.968 860.599 492.704 863.415 494.176C866.231 495.584 868.343 497.6 869.751 500.224V475.84H877.815V544H870.519L870.231 536.32C868.823 539.072 866.679 541.248 863.799 542.848C860.919 544.384 857.687 545.152 854.103 545.152ZM855.735 537.472C858.743 537.472 861.271 536.704 863.319 535.168C865.431 533.632 867.031 531.456 868.119 528.64C869.207 525.76 869.751 522.4 869.751 518.56C869.751 514.592 869.207 511.2 868.119 508.384C867.031 505.568 865.431 503.424 863.319 501.952C861.271 500.416 858.743 499.648 855.735 499.648C851.255 499.648 847.671 501.344 844.983 504.736C842.359 508.064 841.047 512.672 841.047 518.56C841.047 524.384 842.359 528.992 844.983 532.384C847.671 535.776 851.255 537.472 855.735 537.472ZM889.981 558.976L894.589 544H889.693V533.152H900.541V542.656L894.781 558.976H889.981ZM936.461 544V493.12H943.853L944.141 505.984L942.989 505.6C943.565 502.784 944.557 500.384 945.965 498.4C947.437 496.352 949.229 494.784 951.341 493.696C953.453 492.544 955.789 491.968 958.349 491.968C962.765 491.968 966.349 493.184 969.101 495.616C971.917 498.048 973.677 501.44 974.381 505.792L972.845 505.696C973.357 502.752 974.285 500.288 975.629 498.304C977.037 496.256 978.829 494.688 981.005 493.6C983.181 492.512 985.677 491.968 988.493 491.968C992.141 491.968 995.213 492.736 997.709 494.272C1000.21 495.744 1002.09 497.92 1003.37 500.8C1004.65 503.68 1005.29 507.168 1005.29 511.264V544H997.229V512.992C997.229 508.384 996.333 504.928 994.541 502.624C992.749 500.256 990.093 499.072 986.573 499.072C984.205 499.072 982.125 499.648 980.333 500.8C978.605 501.952 977.261 503.616 976.301 505.792C975.341 507.904 974.861 510.496 974.861 513.568V544H966.797V513.568C966.797 509.024 965.997 505.472 964.397 502.912C962.797 500.352 960.109 499.072 956.333 499.072C953.965 499.072 951.885 499.648 950.093 500.8C948.365 501.952 946.989 503.616 945.965 505.792C945.005 507.968 944.525 510.56 944.525 513.568V544H936.461ZM1039.4 545.152C1034.6 545.152 1030.44 544.064 1026.92 541.888C1023.46 539.712 1020.77 536.64 1018.85 532.672C1017 528.64 1016.07 523.936 1016.07 518.56C1016.07 513.184 1017 508.512 1018.85 504.544C1020.77 500.576 1023.43 497.504 1026.82 495.328C1030.28 493.088 1034.34 491.968 1039.01 491.968C1043.43 491.968 1047.33 493.024 1050.72 495.136C1054.12 497.184 1056.74 500.192 1058.6 504.16C1060.52 508.128 1061.48 512.96 1061.48 518.656V521.056H1024.52C1024.84 526.496 1026.28 530.592 1028.84 533.344C1031.46 536.096 1034.98 537.472 1039.4 537.472C1042.72 537.472 1045.44 536.704 1047.56 535.168C1049.73 533.568 1051.24 531.488 1052.07 528.928L1060.71 529.6C1059.36 534.144 1056.8 537.888 1053.03 540.832C1049.32 543.712 1044.77 545.152 1039.4 545.152ZM1024.52 513.952H1052.64C1052.26 509.024 1050.82 505.408 1048.32 503.104C1045.89 500.8 1042.79 499.648 1039.01 499.648C1035.11 499.648 1031.88 500.864 1029.32 503.296C1026.82 505.664 1025.22 509.216 1024.52 513.952ZM1087.44 545.152C1082.19 545.152 1078 543.936 1074.86 541.504C1071.79 539.072 1070.26 535.68 1070.26 531.328C1070.26 526.976 1071.54 523.552 1074.1 521.056C1076.66 518.56 1080.72 516.8 1086.29 515.776L1104.34 512.416C1104.34 508.128 1103.31 504.928 1101.26 502.816C1099.28 500.704 1096.27 499.648 1092.24 499.648C1088.72 499.648 1085.94 500.448 1083.89 502.048C1081.84 503.584 1080.43 505.824 1079.66 508.768L1071.12 508.096C1072.08 503.296 1074.38 499.424 1078.03 496.48C1081.74 493.472 1086.48 491.968 1092.24 491.968C1098.77 491.968 1103.76 493.824 1107.22 497.536C1110.67 501.184 1112.4 506.24 1112.4 512.704V533.728C1112.4 534.88 1112.59 535.712 1112.98 536.224C1113.42 536.672 1114.13 536.896 1115.09 536.896H1117.1V544C1116.85 544.064 1116.43 544.096 1115.86 544.096C1115.28 544.16 1114.67 544.192 1114.03 544.192C1111.73 544.192 1109.84 543.84 1108.37 543.136C1106.96 542.368 1105.94 541.216 1105.3 539.68C1104.66 538.08 1104.34 536 1104.34 533.44L1105.3 533.632C1104.85 535.808 1103.76 537.792 1102.03 539.584C1100.3 541.312 1098.16 542.688 1095.6 543.712C1093.04 544.672 1090.32 545.152 1087.44 545.152ZM1088.21 538.048C1091.6 538.048 1094.48 537.408 1096.85 536.128C1099.28 534.784 1101.14 532.992 1102.42 530.752C1103.7 528.448 1104.34 525.888 1104.34 523.072V519.424L1087.82 522.496C1084.37 523.136 1081.97 524.128 1080.62 525.472C1079.34 526.752 1078.7 528.448 1078.7 530.56C1078.7 532.928 1079.54 534.784 1081.2 536.128C1082.93 537.408 1085.26 538.048 1088.21 538.048ZM1135.63 544C1132.69 544 1130.29 543.232 1128.43 541.696C1126.58 540.16 1125.65 537.728 1125.65 534.4V475.84H1133.71V533.728C1133.71 534.752 1133.97 535.552 1134.48 536.128C1135.06 536.64 1135.86 536.896 1136.88 536.896H1141.3V544H1135.63ZM1169.21 545.152C1164.66 545.152 1160.79 544.416 1157.59 542.944C1154.46 541.472 1151.99 539.456 1150.2 536.896C1148.47 534.272 1147.48 531.296 1147.22 527.968L1155.67 527.392C1156.18 530.464 1157.5 532.928 1159.61 534.784C1161.72 536.576 1164.92 537.472 1169.21 537.472C1172.66 537.472 1175.42 536.928 1177.46 535.84C1179.58 534.688 1180.63 532.864 1180.63 530.368C1180.63 529.024 1180.31 527.904 1179.67 527.008C1179.03 526.112 1177.78 525.344 1175.93 524.704C1174.07 524 1171.32 523.328 1167.67 522.688C1162.81 521.792 1158.97 520.704 1156.15 519.424C1153.4 518.08 1151.42 516.448 1150.2 514.528C1149.05 512.544 1148.47 510.208 1148.47 507.52C1148.47 502.976 1150.14 499.264 1153.46 496.384C1156.79 493.44 1161.53 491.968 1167.67 491.968C1171.83 491.968 1175.32 492.736 1178.14 494.272C1181.02 495.744 1183.26 497.728 1184.86 500.224C1186.52 502.656 1187.61 505.344 1188.12 508.288L1179.67 508.864C1179.29 507.072 1178.58 505.504 1177.56 504.16C1176.54 502.752 1175.19 501.664 1173.53 500.896C1171.86 500.064 1169.88 499.648 1167.58 499.648C1163.93 499.648 1161.24 500.352 1159.51 501.76C1157.78 503.168 1156.92 504.96 1156.92 507.136C1156.92 508.8 1157.3 510.176 1158.07 511.264C1158.9 512.288 1160.22 513.152 1162.01 513.856C1163.8 514.496 1166.2 515.072 1169.21 515.584C1174.39 516.48 1178.42 517.568 1181.3 518.848C1184.18 520.128 1186.2 521.696 1187.35 523.552C1188.5 525.408 1189.08 527.68 1189.08 530.368C1189.08 533.504 1188.18 536.192 1186.39 538.432C1184.66 540.608 1182.3 542.272 1179.29 543.424C1176.34 544.576 1172.98 545.152 1169.21 545.152ZM1225.02 544V493.12H1232.42L1232.7 505.984L1231.55 505.6C1232.13 502.784 1233.12 500.384 1234.53 498.4C1236 496.352 1237.79 494.784 1239.9 493.696C1242.02 492.544 1244.35 491.968 1246.91 491.968C1251.33 491.968 1254.91 493.184 1257.66 495.616C1260.48 498.048 1262.24 501.44 1262.94 505.792L1261.41 505.696C1261.92 502.752 1262.85 500.288 1264.19 498.304C1265.6 496.256 1267.39 494.688 1269.57 493.6C1271.74 492.512 1274.24 491.968 1277.06 491.968C1280.7 491.968 1283.78 492.736 1286.27 494.272C1288.77 495.744 1290.66 497.92 1291.94 500.8C1293.22 503.68 1293.86 507.168 1293.86 511.264V544H1285.79V512.992C1285.79 508.384 1284.9 504.928 1283.1 502.624C1281.31 500.256 1278.66 499.072 1275.14 499.072C1272.77 499.072 1270.69 499.648 1268.9 500.8C1267.17 501.952 1265.82 503.616 1264.86 505.792C1263.9 507.904 1263.42 510.496 1263.42 513.568V544H1255.36V513.568C1255.36 509.024 1254.56 505.472 1252.96 502.912C1251.36 500.352 1248.67 499.072 1244.9 499.072C1242.53 499.072 1240.45 499.648 1238.66 500.8C1236.93 501.952 1235.55 503.616 1234.53 505.792C1233.57 507.968 1233.09 510.56 1233.09 513.568V544H1225.02ZM1322 545.152C1316.75 545.152 1312.56 543.936 1309.43 541.504C1306.35 539.072 1304.82 535.68 1304.82 531.328C1304.82 526.976 1306.1 523.552 1308.66 521.056C1311.22 518.56 1315.28 516.8 1320.85 515.776L1338.9 512.416C1338.9 508.128 1337.87 504.928 1335.83 502.816C1333.84 500.704 1330.83 499.648 1326.8 499.648C1323.28 499.648 1320.5 500.448 1318.45 502.048C1316.4 503.584 1314.99 505.824 1314.23 508.768L1305.68 508.096C1306.64 503.296 1308.95 499.424 1312.59 496.48C1316.31 493.472 1321.04 491.968 1326.8 491.968C1333.33 491.968 1338.32 493.824 1341.78 497.536C1345.23 501.184 1346.96 506.24 1346.96 512.704V533.728C1346.96 534.88 1347.15 535.712 1347.54 536.224C1347.99 536.672 1348.69 536.896 1349.65 536.896H1351.67V544C1351.41 544.064 1350.99 544.096 1350.42 544.096C1349.84 544.16 1349.23 544.192 1348.59 544.192C1346.29 544.192 1344.4 543.84 1342.93 543.136C1341.52 542.368 1340.5 541.216 1339.86 539.68C1339.22 538.08 1338.9 536 1338.9 533.44L1339.86 533.632C1339.41 535.808 1338.32 537.792 1336.59 539.584C1334.87 541.312 1332.72 542.688 1330.16 543.712C1327.6 544.672 1324.88 545.152 1322 545.152ZM1322.77 538.048C1326.16 538.048 1329.04 537.408 1331.41 536.128C1333.84 534.784 1335.7 532.992 1336.98 530.752C1338.26 528.448 1338.9 525.888 1338.9 523.072V519.424L1322.39 522.496C1318.93 523.136 1316.53 524.128 1315.19 525.472C1313.91 526.752 1313.27 528.448 1313.27 530.56C1313.27 532.928 1314.1 534.784 1315.76 536.128C1317.49 537.408 1319.83 538.048 1322.77 538.048ZM1378.63 545.152C1374.22 545.152 1370.38 544.064 1367.11 541.888C1363.91 539.712 1361.45 536.64 1359.72 532.672C1357.99 528.704 1357.13 524 1357.13 518.56C1357.13 513.12 1357.99 508.416 1359.72 504.448C1361.45 500.48 1363.91 497.408 1367.11 495.232C1370.38 493.056 1374.22 491.968 1378.63 491.968C1382.03 491.968 1385.13 492.704 1387.95 494.176C1390.76 495.584 1392.87 497.6 1394.28 500.224V475.84H1402.35V544H1395.05L1394.76 536.32C1393.35 539.072 1391.21 541.248 1388.33 542.848C1385.45 544.384 1382.22 545.152 1378.63 545.152ZM1380.27 537.472C1383.27 537.472 1385.8 536.704 1387.85 535.168C1389.96 533.632 1391.56 531.456 1392.65 528.64C1393.74 525.76 1394.28 522.4 1394.28 518.56C1394.28 514.592 1393.74 511.2 1392.65 508.384C1391.56 505.568 1389.96 503.424 1387.85 501.952C1385.8 500.416 1383.27 499.648 1380.27 499.648C1375.79 499.648 1372.2 501.344 1369.51 504.736C1366.89 508.064 1365.58 512.672 1365.58 518.56C1365.58 524.384 1366.89 528.992 1369.51 532.384C1372.2 535.776 1375.79 537.472 1380.27 537.472ZM1436.61 545.152C1431.81 545.152 1427.65 544.064 1424.13 541.888C1420.68 539.712 1417.99 536.64 1416.07 532.672C1414.21 528.64 1413.29 523.936 1413.29 518.56C1413.29 513.184 1414.21 508.512 1416.07 504.544C1417.99 500.576 1420.65 497.504 1424.04 495.328C1427.49 493.088 1431.56 491.968 1436.23 491.968C1440.65 491.968 1444.55 493.024 1447.94 495.136C1451.33 497.184 1453.96 500.192 1455.81 504.16C1457.73 508.128 1458.69 512.96 1458.69 518.656V521.056H1421.73C1422.05 526.496 1423.49 530.592 1426.05 533.344C1428.68 536.096 1432.2 537.472 1436.61 537.472C1439.94 537.472 1442.66 536.704 1444.77 535.168C1446.95 533.568 1448.45 531.488 1449.29 528.928L1457.93 529.6C1456.58 534.144 1454.02 537.888 1450.25 540.832C1446.53 543.712 1441.99 545.152 1436.61 545.152ZM1421.73 513.952H1449.86C1449.48 509.024 1448.04 505.408 1445.54 503.104C1443.11 500.8 1440.01 499.648 1436.23 499.648C1432.33 499.648 1429.09 500.864 1426.53 503.296C1424.04 505.664 1422.44 509.216 1421.73 513.952ZM1470.84 524.32C1470.65 522.08 1470.43 519.392 1470.17 516.256C1469.98 513.12 1469.79 509.92 1469.6 506.656C1469.4 503.392 1469.31 500.48 1469.31 497.92V475.84H1477.56V497.92C1477.56 500.48 1477.47 503.392 1477.28 506.656C1477.15 509.92 1476.96 513.12 1476.7 516.256C1476.51 519.392 1476.32 522.08 1476.12 524.32H1470.84ZM1467.68 544V533.152H1478.52V544H1467.68Z" fill="#09090B"></path>
</svg>