<svg width="2469" height="568" viewBox="0 0 2469 568" fill="none" xmlns="http://www.w3.org/2000/svg">
<path d="M220.598 39.0149C242.658 45.6673 267.886 55.165 267.886 83.0169C267.886 88.7075 266.482 95.44 261.749 99.1269C252.845 106.14 237.925 100.449 230.906 93.3962C215.745 78.2079 217.349 58.1305 220.598 39.0149ZM176.478 55.0448C176.478 55.0448 179.426 98.9854 180.489 127.179C182.729 186.607 180.489 279.463 180.489 279.463C82.8646 235.02 120.045 117.04 176.478 55.0448ZM336.913 71.0746C323.878 111.55 292.312 111.229 285.293 97.8846C277.713 83.4978 295.481 59.3328 336.913 71.0746ZM272.739 103.134C282.285 116.159 280.881 120.006 276.75 135.194C268.247 121.809 269.41 118.283 272.739 103.134ZM16.0435 115.157H24.0653C24.0653 132.83 22.0999 194.625 27.0333 207.328C32.6485 221.755 47.6492 235.18 63.9734 228.808C93.333 217.307 84.2283 142.247 84.2283 115.157H92.25C92.25 115.157 95.1345 156.835 92.25 183.284C89.6497 207.127 81.2051 219.461 79.6559 243.396C78.9483 254.328 79.6559 271.448 79.6559 271.448L97.3839 455.791L104.283 559.985H64.174C64.174 559.985 63.0888 511.117 64.174 479.836C65.0438 454.762 67.0363 440.779 68.1848 415.716C71.337 346.928 68.1848 239.388 68.1848 239.388C56.794 240.31 46.7267 242.073 36.3385 235.821C8.06191 218.79 16.0435 145.293 16.0435 115.157ZM51 115.157H54.5H57.5V223.358H51V115.157ZM276.75 151.264C292.352 120.607 323.717 122.771 339.961 151.264C352.395 171.261 348.986 195.266 339.961 215.343C297.526 302.065 185.142 251.571 197.375 171.261C203.231 133.07 247.631 111.71 268.728 151.264H276.75ZM244.663 143.209C203.391 149.901 204.434 194.825 228.62 219.351C222.924 176.311 220.277 180.278 244.663 143.209ZM188.511 559.985C178.203 559.865 164.887 561.668 159.392 550.808C154.86 541.831 156.424 500.234 156.424 487.851V339.575C156.544 330.718 156.504 316.772 161.598 309.238C164.245 305.351 167.815 302.626 172.708 302.465C187.989 302.025 188.31 320.94 188.511 331.56V391.672V459.799V559.985ZM252.685 559.985V339.575C252.685 332.201 252.203 318.656 255.091 312.124C260.265 300.342 273.461 298.218 280.681 308.797C285.614 316.011 284.772 330.959 284.772 339.575V559.985H252.685Z" fill="#14B8A6" stroke="black" stroke-width="0.32"></path>
<path d="M395 503V148H642V212H471V293.5H636V356.5H471V439H646V503H395ZM678.535 503L806.535 148H896.535L1024.54 503H945.535L919.535 427.5H783.035L757.035 503H678.535ZM804.535 365H898.535L851.535 228L804.535 365ZM1095.96 503V212H989.965V148H1278.96V212H1172.46V503H1095.96ZM1331.78 503V148H1541.28V163H1347.78V318.5H1535.28V333.5H1347.78V488H1545.28V503H1331.78ZM1582.4 503L1713.9 148H1732.9L1864.4 503H1847.9L1804.9 385.5H1641.9L1598.9 503H1582.4ZM1647.4 370.5H1799.4L1723.4 164L1647.4 370.5ZM2027.3 511C2002.3 511 1979.97 505.833 1960.3 495.5C1940.63 484.833 1924.97 470.667 1913.3 453C1901.97 435 1896.3 415.167 1896.3 393.5L1912.8 392C1912.8 410.333 1917.63 427.333 1927.3 443C1936.97 458.667 1950.47 471.333 1967.8 481C1985.13 490.333 2005.3 495 2028.3 495C2047.63 495 2064.97 491.833 2080.3 485.5C2095.97 478.833 2108.3 469.5 2117.3 457.5C2126.3 445.167 2130.8 430.333 2130.8 413C2130.8 400.333 2127.8 389 2121.8 379C2115.8 368.667 2104.47 359.333 2087.8 351C2071.13 342.333 2046.97 334.333 2015.3 327C1989.3 321 1968.13 314.333 1951.8 307C1935.47 299.667 1923.3 290.333 1915.3 279C1907.63 267.333 1903.8 252.333 1903.8 234C1903.8 216.667 1908.3 201 1917.3 187C1926.3 172.667 1939.3 161.333 1956.3 153C1973.63 144.333 1994.63 140 2019.3 140C2045.3 140 2067.13 145.333 2084.8 156C2102.47 166.667 2115.8 180.333 2124.8 197C2133.8 213.667 2138.3 231 2138.3 249L2121.3 250.5C2121.3 233.5 2117.3 217.833 2109.3 203.5C2101.63 189.167 2090.13 177.667 2074.8 169C2059.47 160.333 2040.63 156 2018.3 156C1987.3 156 1963.3 163.5 1946.3 178.5C1929.3 193.167 1920.8 212 1920.8 235C1920.8 249 1923.63 260.667 1929.3 270C1935.3 279 1945.47 286.833 1959.8 293.5C1974.13 299.833 1994.3 306 2020.3 312C2054.3 319.667 2080.47 328.5 2098.8 338.5C2117.47 348.167 2130.3 359.167 2137.3 371.5C2144.3 383.833 2147.8 398 2147.8 414C2147.8 434 2142.3 451.333 2131.3 466C2120.63 480.333 2106.13 491.5 2087.8 499.5C2069.8 507.167 2049.63 511 2027.3 511ZM2220.94 503V148H2430.44V163H2236.94V318.5H2424.44V333.5H2236.94V488H2434.44V503H2220.94Z" fill="#09090B"></path>
</svg>